# Blender v2.80 (sub 75) OBJ File: ''
# www.blender.org
mtllib indianvillage_campfireon.mtl
o indianvillage_campfireon
v 0.063392 -0.211866 0.013265
v 0.063392 -0.498512 -0.544621
v -0.613466 -0.498512 -0.649380
v -0.472180 -0.498512 0.013265
v 0.598964 -0.498512 0.013265
v 0.713368 -0.498512 -0.649380
v 0.713368 -0.498512 0.740894
v 0.063392 -0.498512 0.571149
v -0.613466 -0.498512 0.740894
v 0.065880 -0.498512 0.021656
v -0.444326 -0.498512 -0.486389
v -0.984335 -0.498512 0.036300
v -0.430709 -0.498512 0.523759
v 0.566373 -0.498512 -0.473820
v 0.057877 -0.498512 -1.010166
v 1.141797 -0.498512 0.083982
v 0.576684 -0.498512 0.535153
v 0.105563 -0.498512 1.116330
v 0.305538 -0.200735 0.235880
v 0.059133 -0.498512 0.029602
v 0.267433 -0.288184 0.316635
v 0.272987 -0.412942 0.316583
v 0.318504 -0.498512 0.239160
v 0.375115 -0.498512 0.142267
v 0.420887 -0.415571 0.063215
v 0.419244 -0.290812 0.056493
v 0.368421 -0.201824 0.128126
v 1.412272 -0.290812 0.629818
v 1.368549 -0.201824 0.705552
v 1.411729 -0.415571 0.630762
v 1.367234 -0.498512 0.707827
v 1.306169 -0.200735 0.813596
v 1.304854 -0.498512 0.815873
v 1.261675 -0.288184 0.890662
v 1.261131 -0.412942 0.891605
v 0.134067 -0.196777 -0.293513
v 0.078627 -0.498512 0.023020
v 0.223055 -0.284225 -0.300890
v 0.220233 -0.408984 -0.305673
v 0.130425 -0.498512 -0.306381
v 0.018207 -0.498512 -0.306962
v -0.073140 -0.411613 -0.307075
v -0.078140 -0.286854 -0.302291
v 0.009308 -0.197866 -0.294093
v -0.078140 -0.286854 -1.448944
v 0.009308 -0.197866 -1.448944
v -0.077052 -0.411613 -1.448944
v 0.011937 -0.498512 -1.448944
v 0.134067 -0.196777 -1.448944
v 0.136695 -0.498512 -1.448944
v 0.223055 -0.284225 -1.448944
v 0.224144 -0.408984 -1.448944
v -0.291898 -0.196777 0.138226
v 0.009947 -0.498512 0.027972
v -0.342781 -0.284225 0.064849
v -0.345513 -0.408984 0.069685
v -0.301221 -0.498512 0.147814
v -0.245615 -0.498512 0.245288
v -0.200039 -0.411613 0.324454
v -0.193397 -0.286854 0.326393
v -0.230021 -0.197866 0.246560
v -1.186425 -0.286854 0.899719
v -1.230149 -0.197866 0.823987
v -1.186970 -0.411613 0.898776
v -1.231464 -0.498512 0.821710
v -1.292529 -0.196777 0.715942
v -1.293844 -0.498512 0.713666
v -1.337024 -0.284225 0.638876
v -1.337567 -0.408984 0.637933
vt 0.765620 0.289064
vt 0.765620 0.515274
vt 0.991840 0.515274
vt 0.991840 0.289064
vt 0.539410 0.289064
vt 0.539410 0.515274
vt 0.539410 0.062844
vt 0.765620 0.062844
vt 0.991840 0.062844
vt 0.765620 0.289064
vt 0.765620 0.515274
vt 0.991840 0.515274
vt 0.991840 0.289064
vt 0.539410 0.289064
vt 0.539410 0.515274
vt 0.539410 0.062844
vt 0.765620 0.062844
vt 0.991840 0.062844
vt 0.171220 0.501760
vt 0.528310 0.572580
vt 0.171270 0.660570
vt 0.171190 0.501870
vt 0.528220 0.572690
vt 0.170970 0.660680
vt 0.171780 0.501740
vt 0.529030 0.572560
vt 0.171430 0.660550
vt 0.171400 0.501690
vt 0.529000 0.572500
vt 0.171110 0.660490
vt 0.510740 0.198860
vt 0.367450 0.249890
vt 0.367450 0.198800
vt 0.170640 0.501730
vt 0.528590 0.572540
vt 0.170850 0.660530
vt 0.170460 0.501550
vt 0.528200 0.572360
vt 0.170820 0.660350
vt 0.170680 0.501770
vt 0.528070 0.572590
vt 0.170970 0.660580
vt 0.176990 0.890440
vt 0.279210 0.991510
vt 0.176180 0.746680
vt 0.277260 0.644460
vt 0.422970 0.990710
vt 0.421010 0.643650
vt 0.524040 0.888480
vt 0.523240 0.744730
vt 0.160090 0.006890
vt 0.160090 0.990610
vt 0.008680 0.990950
vt 0.008680 0.006890
vt 0.159920 0.007260
vt 0.159920 0.990780
vt 0.008500 0.990980
vt 0.008500 0.007260
vt 0.160120 0.007450
vt 0.160120 0.991020
vt 0.008700 0.990970
vt 0.008700 0.007450
vt 0.159960 0.007660
vt 0.159960 0.991500
vt 0.008540 0.991230
vt 0.008540 0.007660
vt 0.159900 0.007680
vt 0.159900 0.991870
vt 0.008490 0.991530
vt 0.008490 0.007680
vt 0.159730 0.006910
vt 0.159730 0.991300
vt 0.008310 0.991100
vt 0.008310 0.006910
vt 0.159580 0.006790
vt 0.159580 0.991130
vt 0.008170 0.991180
vt 0.008170 0.006790
vt 0.159880 0.006770
vt 0.159880 0.990820
vt 0.008470 0.991100
vt 0.008470 0.006770
vt 0.171850 0.502020
vt 0.528750 0.572320
vt 0.171900 0.660310
vt 0.171900 0.502030
vt 0.171700 0.660310
vt 0.171690 0.502020
vt 0.171340 0.660310
vt 0.510290 0.199260
vt 0.367470 0.249870
vt 0.367470 0.199000
vt 0.171050 0.502010
vt 0.170990 0.660300
vt 0.170990 0.502010
vt 0.171200 0.660300
vt 0.170810 0.502020
vt 0.528360 0.572310
vt 0.171160 0.660300
vt 0.170870 0.502020
vt 0.528070 0.572310
vt 0.171160 0.660310
vt 0.176990 0.890440
vt 0.279210 0.991510
vt 0.176180 0.746680
vt 0.277260 0.644460
vt 0.422970 0.990710
vt 0.421010 0.643650
vt 0.524040 0.888480
vt 0.523240 0.744730
vt 0.159640 0.007400
vt 0.159640 0.990940
vt 0.008730 0.991280
vt 0.008730 0.007400
vt 0.159650 0.007780
vt 0.159650 0.991120
vt 0.008730 0.991320
vt 0.008730 0.007780
vt 0.159640 0.007770
vt 0.159640 0.991170
vt 0.008730 0.991120
vt 0.008730 0.007770
vt 0.159640 0.007780
vt 0.159640 0.991450
vt 0.008720 0.991170
vt 0.008720 0.007780
vt 0.159640 0.007780
vt 0.159640 0.991790
vt 0.008720 0.991450
vt 0.008720 0.007780
vt 0.159630 0.007780
vt 0.159630 0.991990
vt 0.008720 0.991790
vt 0.008720 0.007780
vt 0.159640 0.007770
vt 0.159640 0.991930
vt 0.008720 0.991980
vt 0.008720 0.007770
vt 0.159640 0.007120
vt 0.159640 0.991000
vt 0.008720 0.991280
vt 0.008720 0.007120
vt 0.171100 0.501860
vt 0.528190 0.572680
vt 0.171160 0.660670
vt 0.171190 0.501500
vt 0.528220 0.572310
vt 0.170970 0.660300
vt 0.171780 0.501740
vt 0.529030 0.572560
vt 0.171430 0.660550
vt 0.171400 0.501690
vt 0.529000 0.572500
vt 0.171110 0.660490
vt 0.170890 0.501520
vt 0.528780 0.572340
vt 0.170840 0.660330
vt 0.170640 0.501730
vt 0.528590 0.572540
vt 0.170850 0.660530
vt 0.170460 0.501550
vt 0.528200 0.572360
vt 0.170820 0.660350
vt 0.170680 0.501770
vt 0.528070 0.572590
vt 0.170970 0.660580
vt 0.176990 0.890440
vt 0.279210 0.991510
vt 0.176180 0.746680
vt 0.277260 0.644460
vt 0.422970 0.990710
vt 0.421010 0.643650
vt 0.524040 0.888480
vt 0.523240 0.744730
vt 0.160090 0.006890
vt 0.160090 0.990610
vt 0.008680 0.990950
vt 0.008680 0.006890
vt 0.159920 0.007260
vt 0.159920 0.990780
vt 0.008500 0.990980
vt 0.008500 0.007260
vt 0.160120 0.007450
vt 0.160120 0.991020
vt 0.008700 0.990970
vt 0.008700 0.007450
vt 0.159960 0.007660
vt 0.159960 0.991500
vt 0.008540 0.991230
vt 0.008540 0.007660
vt 0.159900 0.007680
vt 0.159900 0.991870
vt 0.008490 0.991530
vt 0.008490 0.007680
vt 0.160140 0.006910
vt 0.160140 0.991300
vt 0.008720 0.991100
vt 0.008720 0.006910
vt 0.159790 0.006890
vt 0.159790 0.991220
vt 0.008380 0.991280
vt 0.008380 0.006890
vt 0.159880 0.006770
vt 0.159880 0.990820
vt 0.008470 0.991100
vt 0.008470 0.006770
vn 0.0706 0.8872 -0.4559
vn -0.4695 0.8772 0.1001
vn 0.4703 0.8788 0.0812
vn -0.0735 0.8871 -0.4558
vn 0.4706 0.8792 -0.0740
vn -0.1185 0.8832 0.4538
vn 0.1139 0.8837 0.4540
vn -0.4699 0.8780 -0.0912
vn 0.0000 1.0000 0.0000
vn -0.8182 0.5397 0.1983
vn -0.7962 -0.0357 0.6040
vn -0.4360 -0.7202 0.5396
vn -0.0000 -1.0000 0.0000
vn 0.2278 -0.7347 -0.6390
vn 0.1042 -0.0521 -0.9932
vn -0.2399 0.5219 -0.8186
vn -0.5878 0.7292 -0.3504
vn 0.8660 0.0000 0.5000
vn 0.3566 0.7009 -0.6177
vn 0.4984 -0.0244 -0.8666
vn 0.3359 -0.7360 -0.5878
vn -0.3500 -0.7194 0.6000
vn -0.5015 -0.0070 0.8651
vn -0.3505 0.7132 0.6070
vn 0.0044 1.0000 -0.0076
vn 0.5788 0.5372 0.6135
vn 0.9213 -0.0357 0.3872
vn 0.7013 -0.7043 0.1103
vn -0.6839 -0.7187 0.1252
vn -0.9125 -0.0521 0.4058
vn -0.5869 0.5196 0.6209
vn -0.0095 0.7246 0.6891
vn 0.0000 0.0000 -1.0000
vn -0.7133 0.7009 0.0000
vn -0.9997 -0.0244 0.0017
vn -0.6939 -0.7200 0.0031
vn 0.7107 -0.7035 0.0032
vn 1.0000 -0.0070 0.0017
vn 0.7009 0.7133 0.0000
vn -0.0087 1.0000 0.0000
vn 0.2419 0.5372 -0.8080
vn -0.1253 -0.0357 -0.9915
vn -0.2551 -0.7043 -0.6624
vn 0.4504 -0.7187 0.5297
vn 0.8077 -0.0521 0.5873
vn 0.8312 0.5196 0.1979
vn 0.6015 0.7246 -0.3363
vn -0.8660 0.0000 0.5000
vn 0.3566 0.7009 0.6177
vn 0.5013 -0.0244 0.8649
vn 0.3496 -0.7200 0.5994
vn -0.3526 -0.7035 -0.6170
vn -0.4985 -0.0070 -0.8669
vn -0.3505 0.7133 -0.6070
vn 0.0044 1.0000 0.0076
usemtl ash
s off
f 1/1/1 2/2/1 3/3/1
f 1/1/2 3/3/2 4/4/2
f 1/1/3 5/5/3 6/6/3
f 1/1/4 6/6/4 2/2/4
f 7/7/5 5/5/5 1/1/5
f 7/7/6 1/1/6 8/8/6
f 9/9/7 8/8/7 1/1/7
f 9/9/8 1/1/8 4/4/8
f 10/10/9 11/11/9 12/12/9
f 10/10/9 12/12/9 13/13/9
f 10/10/9 14/14/9 15/15/9
f 10/10/9 15/15/9 11/11/9
f 16/16/9 14/14/9 10/10/9
f 16/16/9 10/10/9 17/17/9
f 18/18/9 17/17/9 10/10/9
f 18/18/9 10/10/9 13/13/9
usemtl logs
f 19/19/10 20/20/10 21/21/10
f 21/22/11 20/23/11 22/24/11
f 22/25/12 20/26/12 23/27/12
f 23/28/13 20/29/13 24/30/13
f 24/31/14 20/32/14 25/33/14
f 25/34/15 20/35/15 26/36/15
f 26/37/16 20/38/16 27/39/16
f 27/40/17 20/41/17 19/42/17
f 28/43/18 29/44/18 30/45/18
f 30/45/18 29/44/18 31/46/18
f 29/44/18 32/47/18 31/46/18
f 31/46/18 32/47/18 33/48/18
f 32/47/18 34/49/18 33/48/18
f 34/49/18 35/50/18 33/48/18
f 28/51/19 26/52/19 27/53/19 29/54/19
f 30/55/20 25/56/20 26/57/20 28/58/20
f 31/59/21 24/60/21 25/61/21 30/62/21
f 33/63/13 23/64/13 24/65/13 31/66/13
f 35/67/22 22/68/22 23/69/22 33/70/22
f 34/71/23 21/72/23 22/73/23 35/74/23
f 32/75/24 19/76/24 21/77/24 34/78/24
f 29/79/25 27/80/25 19/81/25 32/82/25
f 36/83/26 37/84/26 38/85/26
f 38/86/27 37/84/27 39/87/27
f 39/88/28 37/84/28 40/89/28
f 40/90/13 37/91/13 41/92/13
f 41/93/29 37/84/29 42/94/29
f 42/95/30 37/84/30 43/96/30
f 43/97/31 37/98/31 44/99/31
f 44/100/32 37/101/32 36/102/32
f 45/103/33 46/104/33 47/105/33
f 47/105/33 46/104/33 48/106/33
f 46/104/33 49/107/33 48/106/33
f 48/106/33 49/107/33 50/108/33
f 49/107/33 51/109/33 50/108/33
f 51/109/33 52/110/33 50/108/33
f 45/111/34 43/112/34 44/113/34 46/114/34
f 47/115/35 42/116/35 43/117/35 45/118/35
f 48/119/36 41/120/36 42/121/36 47/122/36
f 50/123/13 40/124/13 41/125/13 48/126/13
f 52/127/37 39/128/37 40/129/37 50/130/37
f 51/131/38 38/132/38 39/133/38 52/134/38
f 49/135/39 36/136/39 38/137/39 51/138/39
f 46/139/40 44/140/40 36/141/40 49/142/40
f 53/143/41 54/144/41 55/145/41
f 55/146/42 54/147/42 56/148/42
f 56/149/43 54/150/43 57/151/43
f 57/152/13 54/153/13 58/154/13
f 58/155/44 54/156/44 59/157/44
f 59/158/45 54/159/45 60/160/45
f 60/161/46 54/162/46 61/163/46
f 61/164/47 54/165/47 53/166/47
f 62/167/48 63/168/48 64/169/48
f 64/169/48 63/168/48 65/170/48
f 63/168/48 66/171/48 65/170/48
f 65/170/48 66/171/48 67/172/48
f 66/171/48 68/173/48 67/172/48
f 68/173/48 69/174/48 67/172/48
f 62/175/49 60/176/49 61/177/49 63/178/49
f 64/179/50 59/180/50 60/181/50 62/182/50
f 65/183/51 58/184/51 59/185/51 64/186/51
f 67/187/13 57/188/13 58/189/13 65/190/13
f 69/191/52 56/192/52 57/193/52 67/194/52
f 68/195/53 55/196/53 56/197/53 69/198/53
f 66/199/54 53/200/54 55/201/54 68/202/54
f 63/203/55 61/204/55 53/205/55 66/206/55
